<svg xmlns="http://www.w3.org/2000/svg" viewBox="0 0 487 111"><defs><style>.cls-1{fill:#a0c261;opacity:0.6;}.cls-1,.cls-2,.cls-3{stroke:#fff;stroke-miterlimit:10;}.cls-1,.cls-2{stroke-width:0.55px;}.cls-2,.cls-3{fill:#fff;opacity:0.31;}.cls-3{stroke-width:0.63px;}.cls-4,.cls-5{fill:#7e8f7a;}.cls-5{font-size:80px;font-family:AndaleMono, Andale Mono;}</style></defs><g id="Layer_1" data-name="Layer 1"><path class="cls-1" d="M14.75,102.3,40,44.11A7.85,7.85,0,0,1,53.21,42.2L67.09,58.79a3.07,3.07,0,0,0,5.11-.63L94.77,11.69a3.06,3.06,0,0,1,5.64.29l33.08,90.48a3.06,3.06,0,0,1-2.88,4.12h-113A3.06,3.06,0,0,1,14.75,102.3Z"/><path class="cls-2" d="M97.93,5.19,135,106.58s-25.62-32.16-29.44-46.33S97.93,5.19,97.93,5.19"/><path class="cls-3" d="M62.62,111.29s-9.08-46.1-5-60.59S81.46,0,81.46,0"/></g><g id="Layer_2" data-name="Layer 2"><path class="cls-4" d="M41.06,42.43a1.16,1.16,0,0,1,2.2.67L35.48,85.32A1.7,1.7,0,0,0,38.2,87l4.47-3.45A4.06,4.06,0,0,1,48.83,85l3,6.39a2.8,2.8,0,0,0,5.06,0Q63.74,77,70.62,62.55L93.8,13.85a.87.87,0,0,1,1.63.61Q86.12,49.05,76.81,83.65A3,3,0,0,0,81.05,87l6-3.18a3,3,0,0,1,4.37,2.62v1.59a2.74,2.74,0,0,0,4.18,2.33h0a3.69,3.69,0,0,1,4.92,1l2.11,2.87a4,4,0,0,0,4.79,1.32l4.89-2.06a5,5,0,0,1,4.81.52l15.65,11a.88.88,0,0,1-.51,1.59l-118-.16a.87.87,0,0,1-.79-1.23Z"/><text class="cls-5" transform="translate(138.77 86.65)">evevest</text></g></svg>